<svg width="25" height="24" viewBox="0 0 25 24" fill="none" xmlns="http://www.w3.org/2000/svg">
<path d="M21.5 19.9994C21.5 20.2646 21.3946 20.5189 21.2071 20.7065C21.0196 20.894 20.7652 20.9994 20.5 20.9994H4.5C4.23478 20.9994 3.98043 20.894 3.79289 20.7065C3.60536 20.5189 3.5 20.2646 3.5 19.9994V9.31335C3.49994 9.1623 3.5341 9.0132 3.59991 8.87724C3.66573 8.74128 3.76149 8.622 3.88 8.52835L11.88 2.21735C12.0565 2.07784 12.275 2.00195 12.5 2.00195C12.725 2.00195 12.9435 2.07784 13.12 2.21735L21.12 8.52735C21.2386 8.62111 21.3345 8.74055 21.4003 8.87669C21.4661 9.01284 21.5002 9.16213 21.5 9.31335V19.9994ZM7.5 11.9994C7.5 13.3254 8.02678 14.5972 8.96447 15.5349C9.90215 16.4726 11.1739 16.9994 12.5 16.9994C13.8261 16.9994 15.0979 16.4726 16.0355 15.5349C16.9732 14.5972 17.5 13.3254 17.5 11.9994H15.5C15.5 12.795 15.1839 13.5581 14.6213 14.1207C14.0587 14.6833 13.2956 14.9994 12.5 14.9994C11.7044 14.9994 10.9413 14.6833 10.3787 14.1207C9.81607 13.5581 9.5 12.795 9.5 11.9994H7.5Z" fill="white"/>
</svg>
