<svg width="24" height="19" viewBox="0 0 24 24" fill="none" xmlns="http://www.w3.org/2000/svg">
<path d="M8.83 9.5H11C12.1935 9.5 13.3381 9.97411 14.182 10.818C15.0259 11.6619 15.5 12.8065 15.5 14H8.499L8.5 15H16.5V14C16.4968 12.936 16.1894 11.895 15.614 11H18.5C19.4453 10.9997 20.3712 11.2674 21.1705 11.772C21.9698 12.2767 22.6097 12.9975 23.016 13.851C20.651 16.972 16.822 19 12.5 19C9.739 19 7.4 18.41 5.5 17.375V8.071C6.71661 8.24528 7.86547 8.73829 8.83 9.5ZM4.5 17C4.5 17.2652 4.39464 17.5196 4.20711 17.7071C4.01957 17.8946 3.76522 18 3.5 18H1.5C1.23478 18 0.98043 17.8946 0.792893 17.7071C0.605357 17.5196 0.5 17.2652 0.5 17V8C0.5 7.73478 0.605357 7.48043 0.792893 7.29289C0.98043 7.10536 1.23478 7 1.5 7H3.5C3.76522 7 4.01957 7.10536 4.20711 7.29289C4.39464 7.48043 4.5 7.73478 4.5 8V17ZM17.5 3C18.2956 3 19.0587 3.31607 19.6213 3.87868C20.1839 4.44129 20.5 5.20435 20.5 6C20.5 6.79565 20.1839 7.55871 19.6213 8.12132C19.0587 8.68393 18.2956 9 17.5 9C16.7044 9 15.9413 8.68393 15.3787 8.12132C14.8161 7.55871 14.5 6.79565 14.5 6C14.5 5.20435 14.8161 4.44129 15.3787 3.87868C15.9413 3.31607 16.7044 3 17.5 3ZM10.5 0C11.2956 0 12.0587 0.316071 12.6213 0.87868C13.1839 1.44129 13.5 2.20435 13.5 3C13.5 3.79565 13.1839 4.55871 12.6213 5.12132C12.0587 5.68393 11.2956 6 10.5 6C9.70435 6 8.94129 5.68393 8.37868 5.12132C7.81607 4.55871 7.5 3.79565 7.5 3C7.5 2.20435 7.81607 1.44129 8.37868 0.87868C8.94129 0.316071 9.70435 0 10.5 0Z" fill="white" fill-opacity="0.95"/>
</svg>
