<svg width="16" height="19" viewBox="0 0 16 19" fill="none" xmlns="http://www.w3.org/2000/svg">
<path d="M14.667 14.5552L15.0003 14.9994C15.0468 15.0613 15.075 15.1349 15.082 15.2119C15.0889 15.289 15.0743 15.3665 15.0397 15.4357C15.0051 15.5049 14.9519 15.5631 14.886 15.6038C14.8202 15.6445 14.7444 15.666 14.667 15.666H1.33366C1.25628 15.666 1.18043 15.6445 1.1146 15.6038C1.04878 15.5631 0.995586 15.5049 0.960981 15.4357C0.926376 15.3665 0.911727 15.289 0.918676 15.2119C0.925625 15.1349 0.953898 15.0613 1.00033 14.9994L1.33366 14.5552V7.33268C1.33366 5.56457 2.03604 3.86888 3.28628 2.61864C4.53652 1.36839 6.23222 0.666016 8.00033 0.666016C9.76844 0.666016 11.4641 1.36839 12.7144 2.61864C13.9646 3.86888 14.667 5.56457 14.667 7.33268V14.5552ZM5.91699 16.4993H10.0837C10.0837 17.0519 9.86417 17.5818 9.47347 17.9725C9.08276 18.3632 8.55286 18.5827 8.00033 18.5827C7.44779 18.5827 6.91789 18.3632 6.52719 17.9725C6.13649 17.5818 5.91699 17.0519 5.91699 16.4993V16.4993Z" fill="white" fill-opacity="0.95"/>
</svg>
