<svg width="19" height="19" viewBox="0 0 19 19" fill="none" xmlns="http://www.w3.org/2000/svg">
<path d="M18.5 17.9994C18.5 18.2646 18.3946 18.5189 18.2071 18.7065C18.0196 18.894 17.7652 18.9994 17.5 18.9994H1.5C1.23478 18.9994 0.98043 18.894 0.792893 18.7065C0.605357 18.5189 0.5 18.2646 0.5 17.9994V7.31335C0.49994 7.1623 0.534099 7.0132 0.599913 6.87724C0.665727 6.74128 0.761486 6.622 0.88 6.52835L8.88 0.217351C9.05655 0.0778421 9.27499 0.00195312 9.5 0.00195312C9.72501 0.00195312 9.94345 0.0778421 10.12 0.217351L18.12 6.52735C18.2386 6.62111 18.3345 6.74055 18.4003 6.87669C18.4661 7.01284 18.5002 7.16213 18.5 7.31335V17.9994ZM4.5 9.99935C4.5 11.3254 5.02678 12.5972 5.96447 13.5349C6.90215 14.4726 8.17392 14.9994 9.5 14.9994C10.8261 14.9994 12.0979 14.4726 13.0355 13.5349C13.9732 12.5972 14.5 11.3254 14.5 9.99935H12.5C12.5 10.795 12.1839 11.5581 11.6213 12.1207C11.0587 12.6833 10.2956 12.9994 9.5 12.9994C8.70435 12.9994 7.94129 12.6833 7.37868 12.1207C6.81607 11.5581 6.5 10.795 6.5 9.99935H4.5Z" fill="#00CD90"/>
</svg>
