<svg width="20" height="14" viewBox="0 0 20 14" fill="none" xmlns="http://www.w3.org/2000/svg">
<path d="M19 0H1C0.734784 0 0.48043 0.105357 0.292893 0.292893C0.105357 0.48043 0 0.734784 0 1V13C0 13.2652 0.105357 13.5196 0.292893 13.7071C0.48043 13.8946 0.734784 14 1 14H19C19.2652 14 19.5196 13.8946 19.7071 13.7071C19.8946 13.5196 20 13.2652 20 13V1C20 0.734784 19.8946 0.48043 19.7071 0.292893C19.5196 0.105357 19.2652 0 19 0ZM2 12V9C2.79565 9 3.55871 9.31607 4.12132 9.87868C4.68393 10.4413 5 11.2044 5 12H2ZM2 5V2H5C5 2.79565 4.68393 3.55871 4.12132 4.12132C3.55871 4.68393 2.79565 5 2 5ZM10 9.5C9.50555 9.5 9.0222 9.35338 8.61107 9.07867C8.19995 8.80397 7.87952 8.41352 7.6903 7.95671C7.50108 7.49989 7.45157 6.99723 7.54804 6.51227C7.6445 6.02732 7.8826 5.58186 8.23223 5.23223C8.58186 4.8826 9.02732 4.6445 9.51227 4.54804C9.99723 4.45157 10.4999 4.50108 10.9567 4.6903C11.4135 4.87952 11.804 5.19995 12.0787 5.61107C12.3534 6.0222 12.5 6.50555 12.5 7C12.5 7.66304 12.2366 8.29893 11.7678 8.76777C11.2989 9.23661 10.663 9.5 10 9.5ZM18 12H15C15 11.2044 15.3161 10.4413 15.8787 9.87868C16.4413 9.31607 17.2044 9 18 9V12ZM18 5C17.2044 5 16.4413 4.68393 15.8787 4.12132C15.3161 3.55871 15 2.79565 15 2H18V5Z" fill="white" fill-opacity="0.95"/>
</svg>
