<svg width="23" height="20" viewBox="0 0 23 20" fill="none" xmlns="http://www.w3.org/2000/svg">
<path d="M21.5 18V20H1.5V18H2.5V11.242C1.88437 10.8311 1.37971 10.2745 1.03082 9.62176C0.681927 8.96899 0.499592 8.24017 0.500001 7.5C0.500001 6.673 0.724001 5.876 1.133 5.197L3.845 0.5C3.93277 0.347985 4.059 0.221749 4.21101 0.133981C4.36303 0.0462129 4.53547 4.45922e-06 4.711 0H18.29C18.4655 4.45922e-06 18.638 0.0462129 18.79 0.133981C18.942 0.221749 19.0682 0.347985 19.156 0.5L21.858 5.182C22.4546 6.17287 22.6463 7.35553 22.3934 8.48414C22.1405 9.61275 21.4624 10.6005 20.5 11.242V18H21.5ZM5.289 2L2.856 6.213C2.61958 6.79714 2.61248 7.44903 2.83613 8.03818C3.05978 8.62733 3.49768 9.11029 4.06218 9.39039C4.62668 9.6705 5.27614 9.72708 5.88058 9.54882C6.48502 9.37055 6.99984 8.9706 7.322 8.429C7.657 7.592 8.842 7.592 9.178 8.429C9.3633 8.89342 9.6836 9.2916 10.0975 9.5721C10.5115 9.85261 11 10.0025 11.5 10.0025C12 10.0025 12.4885 9.85261 12.9025 9.5721C13.3164 9.2916 13.6367 8.89342 13.822 8.429C14.157 7.592 15.342 7.592 15.678 8.429C15.8078 8.74845 16.0022 9.0376 16.2491 9.27828C16.496 9.51895 16.7901 9.70595 17.1127 9.82752C17.4354 9.94909 17.7797 10.0026 18.1241 9.98468C18.4684 9.96677 18.8053 9.87782 19.1136 9.72343C19.4219 9.56903 19.6949 9.35253 19.9155 9.08753C20.1361 8.82253 20.2995 8.51477 20.3955 8.18357C20.4914 7.85238 20.5178 7.50493 20.473 7.16305C20.4281 6.82118 20.3131 6.49227 20.135 6.197L17.71 2H5.29H5.289Z" fill="white" fill-opacity="0.7"/>
</svg>
